<svg width="12" height="9" viewBox="0 0 12 9" fill="none" xmlns="http://www.w3.org/2000/svg">
<mask id="path-1-inside-1_54_669" fill="white">
<path d="M11.1494 0.163847C10.9317 -0.0546158 10.5786 -0.0546158 10.3608 0.163847L3.68007 6.8656L1.1121 4.28958C0.894343 4.07112 0.541294 4.07114 0.323492 4.28958C0.105711 4.50802 0.105711 4.86218 0.323492 5.08064L3.28577 8.05216C3.50346 8.2706 3.85677 8.27045 4.07438 8.05216L11.1494 0.954929C11.3672 0.736488 11.3672 0.38231 11.1494 0.163847Z"/>
</mask>
<path d="M11.1494 0.163847C10.9317 -0.0546158 10.5786 -0.0546158 10.3608 0.163847L3.68007 6.8656L1.1121 4.28958C0.894343 4.07112 0.541294 4.07114 0.323492 4.28958C0.105711 4.50802 0.105711 4.86218 0.323492 5.08064L3.28577 8.05216C3.50346 8.2706 3.85677 8.27045 4.07438 8.05216L11.1494 0.954929C11.3672 0.736488 11.3672 0.38231 11.1494 0.163847Z" fill="#76BB20"/>
<path d="M10.3608 0.163847L8.23629 -1.95426L8.23617 -1.95414L10.3608 0.163847ZM3.68007 6.8656L1.55543 8.9836L3.68008 11.1149L5.80472 8.98359L3.68007 6.8656ZM1.1121 4.28958L-1.01264 6.40747L-1.01254 6.40758L1.1121 4.28958ZM0.323492 4.28958L-1.80093 2.17137L-1.80104 2.17148L0.323492 4.28958ZM0.323492 5.08064L-1.80115 7.19864L-1.80113 7.19866L0.323492 5.08064ZM3.28577 8.05216L5.41072 5.93448L5.41039 5.93414L3.28577 8.05216ZM4.07438 8.05216L6.19901 10.1702L6.19901 10.1702L4.07438 8.05216ZM11.1494 0.954929L9.0249 -1.16318L9.02479 -1.16307L11.1494 0.954929ZM13.2742 -1.95404C11.8839 -3.34877 9.62627 -3.34846 8.23629 -1.95426L12.4853 2.28195C11.531 3.23923 9.97939 3.23954 9.02468 2.28174L13.2742 -1.95404ZM8.23617 -1.95414L1.55542 4.74761L5.80472 8.98359L12.4855 2.28183L8.23617 -1.95414ZM5.80471 4.7476L3.23674 2.17158L-1.01254 6.40758L1.55543 8.9836L5.80471 4.7476ZM3.23684 2.17169C1.84648 0.77683 -0.411105 0.777464 -1.80093 2.17137L2.44792 6.40779C1.49369 7.36482 -0.0577967 7.36541 -1.01264 6.40747L3.23684 2.17169ZM-1.80104 2.17148C-3.18617 3.56081 -3.18602 5.80943 -1.80115 7.19864L2.44813 2.96264C3.39744 3.91493 3.39759 5.45524 2.44802 6.40769L-1.80104 2.17148ZM-1.80113 7.19866L1.16114 10.1702L5.41039 5.93414L2.44811 2.96263L-1.80113 7.19866ZM1.16081 10.1698C2.55162 11.5654 4.80979 11.5637 6.19901 10.1702L1.94974 5.93416C2.90375 4.97716 4.4553 4.97578 5.41072 5.93448L1.16081 10.1698ZM6.19901 10.1702L13.2741 3.07293L9.02479 -1.16307L1.94974 5.93416L6.19901 10.1702ZM13.274 3.07303C14.6592 1.68357 14.6587 -0.564991 13.2742 -1.95404L9.02468 2.28174C8.07563 1.32961 8.07519 -0.21059 9.0249 -1.16318L13.274 3.07303Z" fill="#76BB20" mask="url(#path-1-inside-1_54_669)"/>
</svg>
