<svg width="280" height="28" viewBox="0 0 280 28" fill="none" xmlns="http://www.w3.org/2000/svg">
<path d="M6.91142 6.78488C7.10647 6.31024 7.39905 5.91038 7.78591 5.58529C8.17602 5.2602 8.81319 5.09766 9.70069 5.09766C10.6077 5.09766 11.2514 5.26996 11.6317 5.6178C12.0088 5.96565 12.2852 6.35251 12.4575 6.78488L17.8442 19.5674H19.3689V22.4867H0V19.5674H1.55718L6.91142 6.78488ZM5.25671 19.5642H14.1447L10.0258 8.89146C9.98352 8.80694 9.94451 8.70941 9.912 8.59888C9.87949 8.4916 9.80797 8.43634 9.70069 8.43634C9.63567 8.43634 9.57066 8.4851 9.50564 8.58262C9.44062 8.68015 9.38535 8.78418 9.34309 8.89146L5.25671 19.5642Z" fill="#E4003A"/>
<path d="M34.4856 13.6276C34.983 13.6926 35.4153 13.8389 35.7827 14.0665C36.15 14.2941 36.4329 14.5249 36.6247 14.7622C36.9693 15.1946 37.1806 15.6659 37.2586 16.1731C37.3334 16.6802 37.3724 17.1614 37.3724 17.6165C37.3724 17.8538 37.3626 18.1301 37.3399 18.4422C37.3171 18.7575 37.2684 19.0859 37.1936 19.4305C37.1188 19.7783 37.005 20.1229 36.8522 20.4675C36.6994 20.8121 36.4849 21.1275 36.2021 21.407C35.6819 21.9272 35.1 22.236 34.4498 22.3335C33.8029 22.4311 33.2275 22.4798 32.7301 22.4798H24.5541C24.1867 22.4798 23.7901 22.4473 23.3707 22.3823C22.9481 22.3173 22.5873 22.145 22.2849 21.8622C21.9826 21.6021 21.7973 21.29 21.7323 20.9226C21.6673 20.5553 21.6348 20.2302 21.6348 19.9506V7.98081C21.6348 7.67848 21.6738 7.34362 21.7485 6.97627C21.8233 6.60892 22.0444 6.27408 22.4117 5.97174C22.7791 5.66941 23.1627 5.48086 23.5625 5.40284C23.9624 5.32807 24.346 5.28906 24.7134 5.28906H32.4993C32.7789 5.28906 33.0942 5.29556 33.442 5.30531C33.7866 5.31507 34.1345 5.36383 34.4791 5.45161C34.8237 5.53938 35.165 5.66291 35.4999 5.82546C35.8347 5.988 36.1338 6.21881 36.3906 6.52115C36.823 7.01854 37.083 7.57119 37.1708 8.17586C37.2586 8.78052 37.3009 9.29092 37.3009 9.70053C37.3009 10.1557 37.2586 10.6465 37.1708 11.1764C37.083 11.7063 36.8685 12.1647 36.5206 12.5548C36.2833 12.8149 35.9907 13.036 35.6461 13.218C35.2983 13.4033 34.9114 13.5138 34.4791 13.5593V13.6276H34.4856ZM31.3062 12.1355C31.5435 12.1355 31.8101 12.1095 32.0994 12.0542C32.392 12.0022 32.6553 11.8559 32.8959 11.6153C33.1104 11.4008 33.247 11.1667 33.3023 10.9196C33.3575 10.6725 33.3835 10.4287 33.3835 10.1882C33.3835 9.92809 33.3575 9.65827 33.3023 9.37869C33.247 9.09912 33.1007 8.8488 32.8634 8.63099C32.6456 8.43594 32.4083 8.3189 32.1514 8.27339C31.8914 8.23113 31.6313 8.20837 31.3712 8.20837H26.3746C26.2641 8.20837 26.147 8.21487 26.017 8.22463C25.8869 8.23438 25.7667 8.29614 25.6594 8.40342C25.5521 8.5107 25.4871 8.62123 25.4643 8.72851C25.4416 8.83579 25.4318 8.94632 25.4318 9.0536V12.1355H31.3062ZM25.4351 18.5267C25.4351 18.6568 25.4513 18.7933 25.4838 18.9331C25.5163 19.0729 25.5651 19.1997 25.6301 19.307C25.7374 19.437 25.8609 19.5118 26.004 19.5345C26.1438 19.5573 26.2901 19.567 26.4428 19.567H31.1794C31.459 19.567 31.7646 19.541 32.0864 19.4857C32.4115 19.4305 32.6911 19.2874 32.9316 19.0469C33.169 18.8096 33.3153 18.517 33.3705 18.1724C33.4258 17.8278 33.4518 17.5124 33.4518 17.2296C33.4518 16.9695 33.429 16.6932 33.3868 16.4039C33.3445 16.1113 33.2145 15.848 32.9967 15.6107C32.7594 15.3506 32.483 15.1946 32.1709 15.1393C31.8556 15.084 31.5923 15.058 31.3745 15.058H25.4383V18.5267H25.4351Z" fill="#E4003A"/>
<path d="M46.8449 22.4859C46.4126 22.4859 45.9574 22.4697 45.4828 22.4372C45.0082 22.4047 44.5433 22.3136 44.0882 22.1608C43.633 22.008 43.1909 21.787 42.7585 21.4944C42.3262 21.2018 41.9361 20.8085 41.5915 20.3111C41.0291 19.4886 40.6845 18.5263 40.5544 17.4243C40.4244 16.3222 40.3594 15.1974 40.3594 14.0498C40.3594 13.2501 40.3756 12.4991 40.4081 11.7937C40.4407 11.0915 40.5284 10.4413 40.6682 9.84642C40.808 9.2515 41.0128 8.70535 41.2859 8.20796C41.5557 7.71057 41.9296 7.25544 42.4042 6.84583C42.8788 6.43622 43.4055 6.12088 43.9776 5.90632C44.5498 5.69176 45.1285 5.53247 45.7136 5.43494C46.2988 5.33741 46.8579 5.2789 47.4008 5.25614C47.9405 5.23339 48.4184 5.22363 48.828 5.22363C49.8455 5.22363 50.8435 5.28215 51.8286 5.40243C52.8136 5.52271 53.7043 5.83155 54.504 6.32894C55.0014 6.65403 55.4078 7.02138 55.7199 7.431C56.032 7.84061 56.2823 8.29248 56.4676 8.77687C56.6496 9.2645 56.7764 9.77164 56.8414 10.3015C56.9065 10.8314 56.939 11.3678 56.939 11.9075C56.939 12.3399 56.8967 12.7885 56.8089 13.2534C56.7212 13.7182 56.4936 14.1344 56.1263 14.5017C55.8662 14.7618 55.5801 14.9341 55.268 15.0218C54.9527 15.1064 54.6243 15.1519 54.2797 15.1519H44.2865C44.2865 15.5192 44.3092 15.9419 44.3515 16.4165C44.3937 16.8911 44.449 17.2617 44.514 17.5185C44.6441 17.9737 44.8261 18.3345 45.0667 18.6043C45.304 18.8742 45.5868 19.079 45.9087 19.222C46.2338 19.3618 46.5751 19.4528 46.9294 19.4983C47.287 19.5406 47.6381 19.5634 47.9827 19.5634H56.3863V22.4827H46.8449V22.4859ZM52.1666 12.2326C52.534 12.2326 52.7681 12.1253 52.8656 11.9075C52.9631 11.6929 53.0119 11.4654 53.0119 11.2248C53.0119 10.6851 52.8981 10.2203 52.6705 9.83016C52.443 9.44005 52.1894 9.13772 51.9066 8.92316C51.4319 8.55581 50.9053 8.33474 50.3331 8.25672C49.761 8.18195 49.2018 8.14295 48.6622 8.14295C48.4021 8.14295 48.1225 8.14944 47.8169 8.1592C47.5146 8.16895 47.1993 8.20796 46.8774 8.27298C46.5523 8.338 46.2338 8.45178 45.9217 8.61432C45.6063 8.77687 45.3203 8.99793 45.0634 9.28076C44.6733 9.71313 44.4523 10.1715 44.397 10.6591C44.3417 11.1468 44.306 11.6702 44.2832 12.2326H52.1666V12.2326Z" fill="#E4003A"/>
<path d="M64.1688 27.9999H60.375V7.95154C60.375 7.38914 60.4823 6.94052 60.7001 6.60567C60.9146 6.27083 61.1325 6.01726 61.3503 5.84171C61.6754 5.60439 62.033 5.4516 62.4198 5.38659C62.8099 5.32157 63.1675 5.28906 63.4894 5.28906H69.4905C69.7701 5.28906 70.1115 5.30532 70.5113 5.33782C70.9112 5.37033 71.3435 5.45161 71.8084 5.58164C72.2733 5.71168 72.7447 5.90023 73.2193 6.15055C73.6939 6.40087 74.1393 6.73896 74.5489 7.17133C74.9813 7.62645 75.3227 8.12384 75.5697 8.66349C75.8168 9.20314 76.0021 9.75579 76.1224 10.3182C76.2427 10.8806 76.3109 11.4365 76.3337 11.9892C76.3564 12.5418 76.3662 13.0555 76.3662 13.5301C76.3662 14.0925 76.3564 14.6647 76.3337 15.2498C76.3109 15.835 76.2524 16.4071 76.1549 16.9696C76.0574 17.532 75.9176 18.0716 75.7323 18.5917C75.547 19.1119 75.3064 19.5865 75.0008 20.0189C74.5912 20.6041 74.1296 21.0624 73.6224 21.3973C73.1153 21.7321 72.5854 21.9824 72.0327 22.145C71.4801 22.3075 70.9404 22.4051 70.4105 22.4376C69.8806 22.4701 69.3995 22.4863 68.9671 22.4863H64.1656V27.9999H64.1688ZM68.486 19.5638C69.4385 19.5638 70.1635 19.385 70.6609 19.0274C71.1582 18.6698 71.5158 18.3187 71.7304 17.9741C71.9027 17.714 72.0653 17.2816 72.218 16.677C72.3676 16.0723 72.4456 15.1295 72.4456 13.8552C72.4456 12.6881 72.3968 11.8396 72.2993 11.3097C72.2018 10.7798 72.0978 10.3962 71.9905 10.1589C71.7532 9.5965 71.3533 9.13162 70.7909 8.76427C70.2285 8.39692 69.5263 8.21162 68.6811 8.21162H64.949C64.8612 8.21162 64.7702 8.23763 64.6727 8.29289C64.5752 8.34816 64.4939 8.39366 64.4289 8.43918C64.2566 8.61148 64.1688 8.80654 64.1688 9.02435V19.567H68.486V19.5638Z" fill="#E4003A"/>
<path d="M91.8103 22.4863V15.0873H83.6017V22.4863H79.8047V5.28906H83.6017V12.168H91.8103V5.28906H95.6041V22.4863H91.8103Z" fill="#E4003A"/>
<path d="M109.879 5.12951C110.484 5.15226 111.101 5.22053 111.729 5.34081C112.356 5.4611 112.961 5.64315 113.546 5.89347C114.131 6.14054 114.661 6.48189 115.136 6.91426C115.633 7.36938 116.026 7.90252 116.319 8.52019C116.611 9.13786 116.833 9.75879 116.982 10.3862C117.135 11.0136 117.229 11.6313 117.275 12.236C117.317 12.8406 117.34 13.3705 117.34 13.8257C117.34 15.6657 117.128 17.1416 116.706 18.2534C116.283 19.3685 115.76 20.2267 115.132 20.8314C114.677 21.2637 114.154 21.6051 113.559 21.8521C112.964 22.1025 112.346 22.2845 111.709 22.4048C111.072 22.5251 110.448 22.5999 109.843 22.6324C109.238 22.6649 108.686 22.6811 108.188 22.6811C107.668 22.6811 107.106 22.6649 106.501 22.6324C105.897 22.5999 105.279 22.5251 104.651 22.4048C104.024 22.2845 103.419 22.1025 102.834 21.8521C102.249 21.6051 101.719 21.2637 101.244 20.8314C100.724 20.3567 100.321 19.8138 100.029 19.2092C99.736 18.6045 99.5182 17.9836 99.3785 17.3431C99.2387 16.706 99.1444 16.0883 99.1021 15.4934C99.0599 14.8985 99.0371 14.3848 99.0371 13.9525C99.0371 13.4778 99.0599 12.9252 99.1021 12.2978C99.1444 11.6703 99.2419 11.0396 99.3947 10.3992C99.5443 9.76204 99.7686 9.13462 100.058 8.51695C100.35 7.89928 100.744 7.36613 101.241 6.911C101.716 6.47863 102.246 6.13728 102.831 5.89022C103.416 5.64315 104.021 5.45785 104.648 5.33757C105.276 5.21728 105.893 5.14902 106.498 5.12626C107.103 5.1035 107.665 5.09375 108.185 5.09375C108.712 5.097 109.274 5.10675 109.879 5.12951ZM103.117 16.1923C103.215 16.992 103.533 17.7072 104.073 18.3347C104.635 18.9621 105.289 19.3555 106.036 19.518C106.784 19.6805 107.502 19.7618 108.195 19.7618C108.907 19.7618 109.629 19.6805 110.353 19.518C111.078 19.3555 111.722 18.9621 112.285 18.3347C112.847 17.7072 113.175 17.0051 113.273 16.2248C113.37 15.4479 113.419 14.6774 113.419 13.9232V12.8862C113.419 12.4961 113.387 12.0962 113.322 11.6866C113.257 11.277 113.149 10.8706 112.996 10.4707C112.844 10.0709 112.619 9.71002 112.317 9.38493C112.034 9.0826 111.729 8.83878 111.391 8.65348C111.056 8.47143 110.711 8.3284 110.353 8.23087C109.996 8.13334 109.635 8.07483 109.268 8.05207C108.9 8.02932 108.543 8.01956 108.198 8.01956C107.896 8.01956 107.554 8.02932 107.177 8.05207C106.8 8.07483 106.426 8.13334 106.059 8.23087C105.692 8.3284 105.328 8.46818 104.973 8.65348C104.616 8.83878 104.307 9.07935 104.047 9.38493C103.787 9.68727 103.582 10.0449 103.429 10.4545C103.276 10.8641 103.169 11.2802 103.104 11.7028C103.039 12.1254 103 12.5318 102.99 12.9187C102.98 13.3088 102.974 13.6436 102.974 13.9264C102.971 14.6351 103.019 15.3926 103.117 16.1923Z" fill="#E4003A"/>
<path d="M133.824 22.4865L133.954 10.2566V9.93151C133.954 9.84374 133.889 9.80147 133.759 9.80147C133.717 9.80147 133.661 9.82747 133.596 9.88274C133.531 9.93801 133.434 10.0615 133.304 10.2566L125.745 21.3194C125.443 21.7745 125.118 22.1159 124.773 22.3402C124.429 22.5678 123.931 22.6815 123.281 22.6815C122.719 22.6815 122.277 22.5938 121.952 22.4215C121.626 22.2492 121.379 22.0444 121.204 21.8038C121.032 21.5665 120.918 21.3064 120.863 21.0268C120.807 20.7473 120.781 20.4872 120.781 20.2466V5.28922H124.578L124.416 17.5224C124.416 17.6752 124.426 17.7857 124.448 17.8637C124.471 17.9385 124.546 17.9775 124.676 17.9775C124.783 17.9775 124.871 17.9287 124.936 17.8312C125.001 17.7337 125.066 17.6329 125.131 17.5224L132.787 6.26449C133.131 5.76711 133.512 5.44852 133.921 5.30873C134.331 5.16894 134.731 5.09741 135.121 5.09741C135.251 5.09741 135.456 5.11367 135.739 5.14618C136.018 5.17869 136.295 5.28272 136.564 5.45501C136.834 5.62731 137.078 5.88738 137.293 6.23523C137.51 6.58307 137.618 7.07722 137.618 7.7274V22.4897H133.824V22.4865ZM130.401 2.03181C130.801 1.93429 131.165 1.72298 131.486 1.39789C131.659 1.2256 131.821 1.00453 131.974 0.731453C132.127 0.461628 132.234 0.21781 132.299 0H135.251C135.079 0.627424 134.825 1.2451 134.49 1.84976C134.155 2.45443 133.791 2.93232 133.404 3.27691C132.777 3.83932 132.075 4.19042 131.295 4.3302C130.518 4.46999 129.835 4.54151 129.25 4.54151C128.665 4.54151 127.985 4.46999 127.205 4.3302C126.425 4.19042 125.723 3.83932 125.095 3.27691C124.705 2.93232 124.344 2.45443 124.009 1.84976C123.675 1.2451 123.421 0.627424 123.245 0H126.197C126.262 0.21781 126.37 0.458377 126.522 0.731453C126.675 1.00128 126.834 1.22235 127.01 1.39789C127.335 1.72298 127.696 1.93429 128.096 2.03181C128.496 2.12934 128.879 2.17811 129.247 2.17811C129.617 2.17486 130.001 2.12934 130.401 2.03181Z" fill="#E4003A"/>
<path d="M155.656 6.78488C155.851 6.31024 156.144 5.91038 156.531 5.58529C156.921 5.2602 157.558 5.09766 158.445 5.09766C159.352 5.09766 159.996 5.26996 160.377 5.6178C160.754 5.96565 161.03 6.35251 161.206 6.78488L166.589 19.5674H168.114V22.4867H148.748V19.5674H150.305L155.656 6.78488ZM154.001 19.5642H162.889L158.767 8.89146C158.725 8.80694 158.686 8.70941 158.654 8.59888C158.621 8.4916 158.55 8.43634 158.442 8.43634C158.377 8.43634 158.312 8.4851 158.247 8.58262C158.182 8.68015 158.127 8.78418 158.085 8.89146L154.001 19.5642Z" fill="#E4003A"/>
<path d="M183.103 22.4861L183.233 10.2562V9.93109C183.233 9.84332 183.168 9.80105 183.038 9.80105C182.996 9.80105 182.941 9.82706 182.876 9.88232C182.811 9.93759 182.713 10.0611 182.583 10.2562L175.025 21.319C174.722 21.7741 174.397 22.1155 174.053 22.3398C173.705 22.5673 173.211 22.6811 172.56 22.6811C171.998 22.6811 171.556 22.5934 171.231 22.4211C170.906 22.2488 170.659 22.044 170.483 21.8034C170.311 21.5661 170.197 21.306 170.142 21.0264C170.087 20.7468 170.061 20.4868 170.061 20.2462V5.28881H173.858L173.695 17.5187C173.695 17.6715 173.705 17.782 173.728 17.86C173.747 17.9348 173.825 17.9738 173.955 17.9738C174.062 17.9738 174.15 17.9251 174.215 17.8275C174.28 17.73 174.345 17.6292 174.41 17.5187L182.066 6.26082C182.411 5.76343 182.791 5.44485 183.201 5.30506C183.61 5.16527 184.01 5.09375 184.4 5.09375C184.53 5.09375 184.735 5.11 185.018 5.14251C185.301 5.17502 185.574 5.27905 185.844 5.45135C186.113 5.62365 186.357 5.88372 186.572 6.23157C186.79 6.57941 186.897 7.07355 186.897 7.72373V22.4861H183.103V22.4861Z" fill="#E4003A"/>
<path d="M196.696 22.4867C196.371 22.4867 195.994 22.4639 195.562 22.4216C195.129 22.3794 194.687 22.2818 194.232 22.1291C193.777 21.9795 193.319 21.7617 192.854 21.4789C192.389 21.1993 191.963 20.8287 191.573 20.3768C190.858 19.5316 190.422 18.5856 190.259 17.5388C190.097 16.4887 190.016 15.3477 190.016 14.1156C190.016 13.5954 190.025 13.033 190.048 12.4284C190.068 11.8237 190.146 11.2125 190.276 10.5949C190.406 9.97718 190.601 9.37251 190.861 8.7776C191.121 8.18268 191.488 7.63653 191.963 7.13914C192.135 6.96684 192.363 6.77179 192.646 6.55398C192.925 6.33942 193.28 6.13787 193.699 5.95256C194.121 5.77051 194.619 5.61122 195.191 5.48119C195.763 5.35115 196.439 5.28613 197.22 5.28613H204.583V8.20544H198.452C197.174 8.20544 196.209 8.47526 195.549 9.01816C194.889 9.55781 194.45 10.1982 194.235 10.9329C194.17 11.1703 194.115 11.4466 194.073 11.7587C194.03 12.074 194.001 12.3861 193.991 12.7014C193.982 13.0168 193.969 13.3061 193.959 13.5759C193.949 13.8458 193.943 14.0473 193.943 14.1774C193.943 14.4374 193.949 14.7235 193.959 15.0356C193.969 15.3509 193.995 15.6695 194.04 15.9914C194.086 16.3132 194.144 16.635 194.219 16.9504C194.294 17.2625 194.388 17.529 194.495 17.7436C194.71 18.1532 194.983 18.4783 195.308 18.7156C195.633 18.9529 195.991 19.1382 196.378 19.2683C196.768 19.3983 197.174 19.4796 197.593 19.5121C198.016 19.5446 198.422 19.5608 198.809 19.5608H204.973V22.4801H196.696V22.4867Z" fill="#E4003A"/>
<path d="M207.434 5.28906H211.231V22.4831H207.434V5.28906ZM219.212 22.4863L212.95 15.6399C212.755 15.4254 212.544 15.1425 212.316 14.7979C212.089 14.4534 211.975 14.0632 211.975 13.6309C211.975 13.1985 212.115 12.7889 212.398 12.3988C212.677 12.0087 212.937 11.6738 213.175 11.3943L218.659 5.29556H223.168L216.647 12.2395C216.494 12.3923 216.322 12.5906 216.127 12.8409C215.931 13.0912 215.834 13.3545 215.834 13.6374C215.834 13.8097 215.905 14.021 216.045 14.2713C216.185 14.5184 216.322 14.7102 216.452 14.8402L223.786 22.4961H219.212V22.4863Z" fill="#E4003A"/>
<path d="M257.144 22.4863V15.0873H248.936V22.4863H245.139V5.28906H248.936V12.168H257.144V5.28906H260.938V22.4863H257.144Z" fill="#E4003A"/>
<path d="M269.015 22.4863V8.21162H262.559V5.28906H279.265V8.21162H272.809V22.4863H269.015Z" fill="#E4003A"/>
<path d="M234.132 1.03418H232.825C228.433 1.03418 224.873 4.59392 224.873 8.98914V18.4785C224.873 22.8705 228.433 26.4335 232.825 26.4335H234.132C238.524 26.4335 242.087 22.8737 242.087 18.4785V8.98914C242.087 4.59392 238.524 1.03418 234.132 1.03418ZM239.135 16.645L233.481 22.0058L227.828 16.645C227.695 16.5117 227.695 16.4012 227.828 16.2874L229.089 14.948C229.203 14.8343 229.333 14.8343 229.447 14.9676L232.256 17.9649V5.22134H234.727V17.9649L237.516 14.9676C237.63 14.8343 237.76 14.8343 237.873 14.948L239.135 16.2874C239.265 16.3979 239.265 16.5117 239.135 16.645Z" fill="#E4003A"/>
</svg>
