<svg width="20" height="16" viewBox="0 0 20 16" fill="none" xmlns="http://www.w3.org/2000/svg">
<path d="M19.889 7.78406L19.1162 7.01189C19.0963 6.95324 19.0663 6.8946 19.0215 6.84573L11.9813 0.111213C11.8217 -0.0402895 11.5674 -0.0354024 11.4129 0.1161L9.53816 1.99766C9.38359 2.15405 9.38858 2.40329 9.54315 2.55479L13.4621 6.29836H5.68899H5.20037H0.398878C0.179495 6.29836 0 6.4743 0 6.68934V9.31863C0 9.53367 0.179495 9.7096 0.398878 9.7096H5.19538H5.684H13.4521L9.55312 13.4434C9.39357 13.5949 9.39357 13.8441 9.54813 14.0005L11.4229 15.8821C11.5774 16.0385 11.8317 16.0385 11.9913 15.887L19.8791 8.33631C20.0386 8.18969 20.0386 7.94045 19.889 7.78406Z" fill="white"/>
</svg>
