<svg width="29" height="29" viewBox="0 0 29 29" fill="none" xmlns="http://www.w3.org/2000/svg">
<path fill-rule="evenodd" clip-rule="evenodd" d="M17.7746 16.9167H18.7292L24.7587 22.9583L22.9583 24.7587L16.9167 18.7292V17.7746L16.5904 17.4362C15.2129 18.6204 13.4246 19.3333 11.4792 19.3333C7.14125 19.3333 3.625 15.8171 3.625 11.4792C3.625 7.14125 7.14125 3.625 11.4792 3.625C15.8171 3.625 19.3333 7.14125 19.3333 11.4792C19.3333 13.4246 18.6204 15.2129 17.4362 16.5904L17.7746 16.9167ZM6.04167 11.4792C6.04167 14.4879 8.47042 16.9167 11.4792 16.9167C14.4879 16.9167 16.9167 14.4879 16.9167 11.4792C16.9167 8.47042 14.4879 6.04167 11.4792 6.04167C8.47042 6.04167 6.04167 8.47042 6.04167 11.4792Z" fill="#76BB20"/>
</svg>
